Coordinates
version=1
nRows=12
nColumns=24
inDegrees=yes

Units are S.I. units (second, meters, Newtons, ...)
Angles are in degrees.

endheader
time	pelvis_tilt	pelvis_list	pelvis_rotation	pelvis_tx	pelvis_ty	pelvis_tz	hip_flexion_r	hip_adduction_r	hip_rotation_r	knee_angle_r	ankle_angle_r	subtalar_angle_r	mtp_angle_r	hip_flexion_l	hip_adduction_l	hip_rotation_l	knee_angle_l	ankle_angle_l	subtalar_angle_l	mtp_angle_l	lumbar_extension	lumbar_bending	lumbar_rotation
      2.10000000	     68.73812390	     -1.58356805	      4.10770261	      0.65232768	      1.01332811	     -0.21608448	     -7.56459267	     -5.15717081	      7.01216315	    -17.90669981	    -18.88516424	     23.72544036	     60.95026327	     -9.70927384	    -13.95330463	      6.49257679	    -58.74029522	    -10.19505865	     31.57974461	     30.27948223	      0.00000000	      0.00000000	      0.00000000
      2.11000000	     68.84634293	     -1.38556251	      4.23093859	      0.65250785	      1.01336716	     -0.21600986	     -8.59021671	     -5.30996246	      6.71737671	    -19.86595989	    -19.91585405	     26.00947658	     65.08028896	    -10.06380424	    -13.92124729	      6.52689018	    -58.40864257	    -10.23267163	     31.70963739	     30.64977241	      0.00000000	      0.00000000	      0.00000000
      2.12000000	     68.92725303	     -1.17134356	      4.36505318	      0.65290758	      1.01361722	     -0.21590385	     -9.52761680	     -5.51697501	      6.37658663	    -22.06714162	    -21.01626705	     28.43859782	     69.30015849	    -10.36117238	    -13.85888729	      6.58284954	    -58.10384232	    -10.28984895	     31.78684238	     30.93138072	      0.00000000	      0.00000000	      0.00000000
      2.13000000	     68.98525490	     -0.94891772	      4.50853604	      0.65341867	      1.01398878	     -0.21578528	    -10.37097213	     -5.75624499	      5.99686418	    -24.52705198	    -22.13024072	     30.80049911	     73.49781296	    -10.58132983	    -13.76848087	      6.65455174	    -57.86280346	    -10.37033841	     31.81697727	     31.13692210	      0.00000000	      0.00000000	      0.00000000
      2.14000000	     69.02197008	     -0.72968406	      4.65485653	      0.65389643	      1.01430465	     -0.21570780	    -11.11503171	     -6.01676200	      5.58587121	    -27.25107740	    -23.19513938	     32.88703239	     77.56823496	    -10.71839542	    -13.66203060	      6.73308543	    -57.71468720	    -10.46995747	     31.81298734	     31.28975409	      0.00000000	      0.00000000	      0.00000000
      2.15000000	     69.03822124	     -0.52690067	      4.79326280	      0.65430527	      1.01449504	     -0.21568147	    -11.75386429	     -6.29861855	      5.15030284	    -30.23257382	    -24.14584996	     34.52212593	     81.41863275	    -10.77992737	    -13.55429900	      6.80871851	    -57.66625051	    -10.57416271	     31.79352681	     31.42164307	      0.00000000	      0.00000000	      0.00000000
      2.16000000	     69.03335006	     -0.35207452	      4.91186110	      0.65466977	      1.01458932	     -0.21568812	    -12.28272435	     -6.60806790	      4.69664217	    -33.45440419	    -24.92072500	     35.58345629	     84.97281532	    -10.78485704	    -13.45621287	      6.87248167	    -57.69606277	    -10.65760272	     31.78036935	     31.56913334	      0.00000000	      0.00000000	      0.00000000
      2.17000000	     69.00513904	     -0.21118017	      5.00122677	      0.65500245	      1.01466125	     -0.21571474	    -12.69943119	     -6.95234714	      4.23285976	    -36.89161684	    -25.46873224	     36.01498072	     88.17460217	    -10.76055368	    -13.37244619	      6.91793413	    -57.75717495	    -10.68634460	     31.79520402	     31.76884640	      0.00000000	      0.00000000	      0.00000000
      2.18000000	     68.95222455	     -0.10341654	      5.05687736	      0.65528703	      1.01479938	     -0.21575569	    -13.00471314	     -7.33736866	      3.77030333	    -40.51487940	    -25.75659810	     35.82906415	     90.99011847	    -10.73795702	    -13.30310479	      6.94304659	    -57.78609495	    -10.62312287	     31.85632487	     32.05215627	      0.00000000	      0.00000000	      0.00000000
      2.19000000	     68.87714936	     -0.02390079	      5.08050520	      0.65549730	      1.01503015	     -0.21580298	    -13.20292310	     -7.76889806	      3.32567840	    -44.29403635	    -25.77442913	     35.09864546	     93.40887073	    -10.74526792	    -13.24710012	      6.95129101	    -57.71656052	    -10.43529512	     31.97578574	     32.43995417	      0.00000000	      0.00000000	      0.00000000
      2.20000000	     68.78811796	      0.03125238	      5.08051045	      0.65563834	      1.01524238	     -0.21586331	    -13.30290965	     -8.25510900	      2.92264255	    -48.19978056	    -25.53831398	     33.94147591	     95.44353928	    -10.80220377	    -13.20448525	      6.95087458	    -57.49713845	    -10.10416940	     32.15752413	     32.93844270	      0.00000000	      0.00000000	      0.00000000
      2.21000000	     68.69831408	      0.06137656	      5.07055194	      0.65576181	      1.01527937	     -0.21597693	    -13.31793372	     -8.80668860	      2.59099642	    -52.20157119	    -25.08891343	     32.49970678	     97.12843695	    -10.91673884	    -13.17635172	      6.95182384	    -57.11014663	     -9.63322392	     32.39676127	     33.53695671	      0.00000000	      0.00000000	      0.00000000
